<svg width="126" height="48" viewBox="0 0 126 48" fill="none" xmlns="http://www.w3.org/2000/svg">
<path fill-rule="evenodd" clip-rule="evenodd" d="M11.7249 29.8979C12.0669 29.0787 12.0687 28.1751 11.7317 27.3532L11.6515 27.1593L4.19995 30.2267C2.50681 30.9237 1.69539 32.8702 2.39193 34.5654L2.47167 34.7594L9.92318 31.6923C10.7432 31.3545 11.3829 30.7171 11.7249 29.8979ZM36.2091 20.6459L36.2889 20.8398L43.7408 17.7728C44.5613 17.4354 45.201 16.798 45.5425 15.9788C45.8841 15.1592 45.8868 14.2552 45.5493 13.4346L45.4696 13.2402L38.0176 16.3072C36.3245 17.0042 35.513 18.9506 36.2091 20.6459ZM17.6847 35.0363L17.4909 34.9551L14.3889 42.4001C14.047 43.2193 14.0443 44.1228 14.3813 44.9438C14.7187 45.7657 15.3554 46.4067 16.1735 46.7482L16.3668 46.8289L19.4702 39.384C19.8121 38.5648 19.8144 37.6608 19.4774 36.8403C19.1399 36.0184 18.5033 35.3774 17.6847 35.0363ZM30.2561 12.9632L30.4494 13.0444L33.5518 5.59993C33.8938 4.78029 33.8965 3.87674 33.559 3.05574C33.222 2.23429 32.5854 1.59328 31.7672 1.2518L31.574 1.1706L28.4706 8.61507C27.766 10.3067 28.5666 12.2577 30.2561 12.9632ZM9.88398 19.7522C10.3111 19.7522 10.7391 19.6683 11.1459 19.5005C11.9664 19.1631 12.6062 18.5257 12.9472 17.7065L13.0283 17.5125L5.59302 14.4058C4.77394 14.0634 3.87241 14.0621 3.05152 14.3991C2.23153 14.7365 1.59131 15.3739 1.25025 16.1935L1.16961 16.387L8.60444 19.4938C9.01669 19.6656 9.45056 19.7522 9.88398 19.7522ZM34.9936 30.2926L34.9125 30.4861L42.3478 33.5933C42.7645 33.7679 43.197 33.8504 43.6219 33.8504C44.9226 33.8504 46.1593 33.0808 46.6905 31.806L46.7712 31.613L39.3363 28.5058C37.6464 27.7989 35.6982 28.6019 34.9936 30.2926ZM15.9586 2.40075C15.1404 2.05836 14.2385 2.05611 13.418 2.39398L13.2243 2.47382L16.2875 9.93544C16.6245 10.756 17.2611 11.397 18.0798 11.7394C18.4911 11.9112 18.9245 11.997 19.358 11.997C19.786 11.997 20.2131 11.9135 20.6204 11.7457L20.8141 11.6659L17.7509 4.20469C17.4139 3.38369 16.7773 2.74313 15.9586 2.40075ZM29.861 36.2602C29.0433 35.9182 28.1404 35.9155 27.3204 36.2534L27.1267 36.3332L30.1899 43.7949C30.5264 44.6154 31.1635 45.2564 31.9817 45.5983C32.3939 45.7707 32.8269 45.8564 33.2603 45.8564C33.6879 45.8564 34.1155 45.7725 34.5227 45.6047L34.7165 45.5253L31.6528 38.0646C31.3162 37.2427 30.6796 36.6021 29.861 36.2602ZM11.3771 22.443V22.2328H3.32004C1.48949 22.2328 0 23.7237 0 25.557V25.7672H8.05704C9.88759 25.7672 11.3771 24.2754 11.3771 22.443ZM36.5637 25.557V25.7672H44.6207C46.4513 25.7672 47.9408 24.2754 47.9408 22.443V22.2328H39.8837C38.0532 22.2328 36.5637 23.7237 36.5637 25.557ZM13.9663 31.8141L13.8177 31.6657L8.12056 37.3694C6.8257 38.6659 6.8257 40.7748 8.12056 42.0712L8.26879 42.2192L13.9663 36.5159C15.2607 35.219 15.2607 33.1106 13.9663 31.8141ZM33.9744 16.1854L34.1231 16.3334L39.8202 10.6297C41.1151 9.33277 41.1151 7.22434 39.8202 5.92743L39.672 5.77947L33.9744 11.4836C32.68 12.7801 32.68 14.8885 33.9744 16.1854ZM13.8181 14.9553C14.6683 14.9553 15.5185 14.6309 16.1659 13.9836L16.3141 13.8347L10.6166 8.1306C9.98896 7.50267 9.15545 7.15668 8.26879 7.15668C7.38167 7.15668 6.54772 7.50267 5.92057 8.13015L5.77279 8.27901L11.4699 13.9836C12.1173 14.6309 12.9675 14.9553 13.8181 14.9553ZM34.1231 33.0429C33.2365 33.0429 32.4029 33.3889 31.7753 34.0173L31.6276 34.1653L37.3242 39.8694C37.9716 40.5172 38.8218 40.8415 39.6724 40.8415C40.5226 40.8415 41.3728 40.5172 42.0202 39.8694L42.168 39.7205L36.4713 34.0164C35.8442 33.3889 35.0102 33.0429 34.1231 33.0429ZM22.4153 0H22.2054V8.06654C22.2054 9.8998 23.6949 11.3911 25.5254 11.3911H25.7354V3.32414C25.7354 1.49088 24.2459 0 22.4153 0ZM22.4153 36.6089H22.2054V44.6759C22.2054 46.5087 23.6949 48 25.5254 48H25.7354V39.933C25.7354 38.1002 24.2459 36.6089 22.4153 36.6089ZM121.309 34.4711V25.7956H119.067V36.5904H125.538V34.4711H121.309ZM113.674 32.6622L112.102 27.9983L110.517 32.6622H113.674ZM113.49 25.8335L117.374 36.5904H114.929L114.299 34.7499H109.906L109.277 36.5904H106.817L110.73 25.7956H113.476L113.49 25.8335ZM103.227 29.2803C103.227 28.4485 102.633 27.8675 101.783 27.8675H99.603V30.6936H101.783C102.633 30.6936 103.227 30.1126 103.227 29.2803ZM103.353 32.5039L105.615 36.5904H103.04L101.075 32.7651H99.603V36.5904H97.362V25.7956H102.098C104.14 25.7956 105.513 27.2021 105.513 29.2966C105.513 31.2169 104.411 32.2066 103.353 32.5039ZM87.4168 27.9153H90.3421V36.5904H92.5975V27.9153H95.5076V25.7956H87.4168V27.9153ZM83.2916 32.1935C83.2916 33.7525 82.4752 34.6466 81.052 34.6466C79.6093 34.6466 78.7822 33.7525 78.7822 32.1935V25.7956H76.5114V32.2738C76.5114 35.1392 78.1663 36.7825 81.052 36.7825C83.9183 36.7825 85.5623 35.1329 85.5623 32.2571V25.7956H83.2916V32.1935ZM67.1663 36.5904H74.3569V34.5027H69.4068V32.1412H74.252V30.0693H69.4068V27.8675H74.3569V25.7956H67.1663V36.5904ZM62.4559 32.5851L57.9212 25.8204L57.905 25.7956H55.6311V36.5904H57.8716V29.5465L62.5577 36.5904H64.6969V25.7956H62.4559V32.5851ZM122.584 20.1271H117.259V17.7579H122.471V15.6797H117.259V13.4716H122.584V11.3934H114.849V22.2206H122.584V20.1271ZM107.63 22.2206H110.057V13.5194H113.187V11.3934H104.484V13.5194H107.63V22.2206ZM101.359 18.2808L99.6684 13.6029L97.9631 18.2808H101.359ZM102.031 20.3748H97.3062L96.6286 22.2206H93.9825L98.1915 11.3934H101.146L101.161 11.4317L105.339 22.2206H102.709L102.031 20.3748ZM90.0777 22.2206H92.5038V11.3934H89.177L86.6035 17.9681L84.0449 11.4313L84.0301 11.3934H80.719V22.2206H83.1294V14.7694L86.0476 22.1828L86.0629 22.2206H87.1442L90.0777 14.7694V22.2206ZM75.6522 22.2206H78.0631V11.3934H75.6522V22.2206ZM74.1839 20.0951H69.6339V11.3934H67.2235V22.2206H74.1839V20.0951ZM63.2754 18.6949L65.3547 19.6949L65.3222 19.7509C64.2954 21.5174 62.7361 22.4133 60.6884 22.4133C57.3814 22.4133 54.9814 20.059 54.9814 16.8151C54.9814 13.5717 57.3814 11.217 60.6884 11.217C63.2732 11.217 64.6351 12.6565 65.3222 13.8641L65.3538 13.9191L63.2763 14.9359L63.2493 14.8844C62.7668 13.9579 61.7611 13.3593 60.6884 13.3593C58.8457 13.3593 57.4562 14.8452 57.4562 16.8151C57.4562 18.7855 58.8457 20.271 60.6884 20.271C61.7868 20.271 62.7677 19.6868 63.2493 18.7463L63.2754 18.6949Z" fill="#001414"/>
</svg>
